<svg width="100.984863" height="86.834351" viewBox="0 0 100.985 86.8344" fill="none" xmlns="http://www.w3.org/2000/svg" xmlns:xlink="http://www.w3.org/1999/xlink">
	<desc>
			Created with Pixso.
	</desc>
	<defs/>
	<path id="Vector" d="M74.67 50.32C67.88 42.11 59.29 37.59 50.49 37.59C41.69 37.59 33.1 42.11 26.3 50.32C20.2 57.69 16.55 66.98 16.55 75.18C16.55 79.16 17.77 82.19 20.17 84.19C22.54 86.16 25.66 86.83 29.15 86.83C32.86 86.83 36.98 86.07 41.03 85.33C44.57 84.68 47.91 84.07 50.49 84.07C52.71 84.07 55.85 84.65 59.16 85.27C66.92 86.71 75.71 88.34 80.79 84.12C83.2 82.11 84.42 79.1 84.42 75.18C84.42 66.98 80.78 57.69 74.67 50.32Z" fill="#FF8A00" fill-opacity="1.000000" fill-rule="nonzero"/>
	<path id="Vector" d="M75.36 5.76C72.88 2.1 69.32 0 65.6 0C61.88 0 58.32 2.1 55.83 5.76C53.55 9.13 52.29 13.55 52.29 18.22C52.29 22.88 53.55 27.3 55.83 30.67C58.32 34.33 61.88 36.44 65.6 36.44C69.32 36.44 72.88 34.33 75.36 30.67C77.65 27.3 78.91 22.88 78.91 18.22C78.91 13.55 77.65 9.13 75.36 5.76Z" fill="#FF8A00" fill-opacity="1.000000" fill-rule="nonzero"/>
	<path id="Vector" d="M45.14 5.76C42.66 2.1 39.1 0 35.38 0C31.66 0 28.1 2.1 25.61 5.76C23.33 9.13 22.07 13.55 22.07 18.22C22.07 22.88 23.33 27.3 25.61 30.67C28.1 34.33 31.66 36.44 35.38 36.44C39.1 36.44 42.66 34.33 45.14 30.67C47.43 27.3 48.68 22.88 48.68 18.22C48.68 13.55 47.43 9.13 45.14 5.76Z" fill="#FF8A00" fill-opacity="1.000000" fill-rule="nonzero"/>
	<path id="Vector" d="M100.39 34.36C99.39 30.95 97.24 28.48 94.34 27.39C92.01 26.51 89.38 26.66 86.93 27.81C83.56 29.39 80.8 32.65 79.37 36.75C78.19 40.11 78.05 43.65 78.95 46.74C79.96 50.15 82.1 52.62 85 53.71C86.01 54.09 87.06 54.28 88.14 54.28C89.56 54.28 91.02 53.95 92.42 53.3C95.79 51.72 98.55 48.46 99.98 44.35L99.98 44.35C101.15 41 101.3 37.45 100.39 34.36Z" fill="#FF8A00" fill-opacity="1.000000" fill-rule="nonzero"/>
	<path id="Vector" d="M21.61 36.75C20.18 32.65 17.42 29.39 14.04 27.81C11.6 26.66 8.96 26.51 6.63 27.39C3.73 28.48 1.58 30.95 0.58 34.36C-0.32 37.45 -0.18 41 0.99 44.35L0.99 44.35C2.43 48.46 5.19 51.72 8.56 53.3C9.95 53.95 11.41 54.28 12.84 54.28C13.91 54.28 14.97 54.09 15.97 53.71C18.87 52.62 21.02 50.15 22.02 46.74C22.93 43.65 22.78 40.11 21.61 36.75Z" fill="#FF8A00" fill-opacity="1.000000" fill-rule="nonzero"/>
</svg>
