<svg width="28" height="28" viewBox="0 0 28 28" fill="none" xmlns="http://www.w3.org/2000/svg">
<path d="M18.7075 4.74211C18.8697 4.90401 18.9984 5.09632 19.0862 5.30802C19.174 5.51972 19.2192 5.74667 19.2192 5.97586C19.2192 6.20506 19.174 6.432 19.0862 6.6437C18.9984 6.85541 18.8697 7.04771 18.7075 7.20961L11.9175 13.9996L18.7075 20.7896C19.0347 21.1168 19.2185 21.5606 19.2185 22.0234C19.2185 22.4861 19.0347 22.9299 18.7075 23.2571C18.3802 23.5843 17.9365 23.7681 17.4737 23.7681C17.011 23.7681 16.5672 23.5843 16.24 23.2571L8.20746 15.2246C8.04523 15.0627 7.91652 14.8704 7.8287 14.6587C7.74089 14.447 7.69568 14.2201 7.69568 13.9909C7.69568 13.7617 7.74089 13.5347 7.8287 13.323C7.91652 13.1113 8.04523 12.919 8.20746 12.7571L16.24 4.72461C16.905 4.05961 18.025 4.05961 18.7075 4.74211Z" fill="white"/>
</svg>
