<svg width="14" height="14" viewBox="0 0 14 14" fill="none" xmlns="http://www.w3.org/2000/svg">
<path d="M9.26653 2.54244C9.34464 2.6204 9.40661 2.71299 9.44889 2.81492C9.49118 2.91685 9.51294 3.02612 9.51294 3.13647C9.51294 3.24682 9.49118 3.35609 9.44889 3.45803C9.40661 3.55996 9.34464 3.65255 9.26653 3.7305L5.99727 6.99976L9.26653 10.269C9.42407 10.4266 9.51258 10.6402 9.51258 10.863C9.51258 11.0858 9.42407 11.2995 9.26653 11.4571C9.10898 11.6146 8.8953 11.7031 8.6725 11.7031C8.4497 11.7031 8.23602 11.6146 8.07847 11.4571L4.21097 7.58957C4.13286 7.51162 4.07089 7.41903 4.02861 7.3171C3.98633 7.21517 3.96456 7.1059 3.96456 6.99555C3.96456 6.88519 3.98633 6.77592 4.02861 6.67399C4.07089 6.57206 4.13286 6.47947 4.21097 6.40152L8.07847 2.53402C8.39866 2.21383 8.93792 2.21383 9.26653 2.54244Z" fill="white"/>
</svg>
