<svg xmlns="http://www.w3.org/2000/svg" width="100.985" height="86.834" fill="none"><path fill="#FF8A00" d="M74.67 50.32c-6.79-8.21-15.38-12.73-24.18-12.73-8.8 0-17.39 4.52-24.19 12.73-6.1 7.37-9.75 16.66-9.75 24.86 0 3.98 1.22 7.01 3.62 9.01 2.37 1.97 5.49 2.64 8.98 2.64 3.71 0 7.83-.76 11.88-1.5 3.54-.65 6.88-1.26 9.46-1.26 2.22 0 5.36.58 8.67 1.2 7.76 1.44 16.55 3.07 21.63-1.15 2.41-2.01 3.63-5.02 3.63-8.94 0-8.2-3.64-17.49-9.75-24.86Zm.69-44.56C72.88 2.1 69.32 0 65.6 0c-3.72 0-7.28 2.1-9.77 5.76-2.28 3.37-3.54 7.79-3.54 12.46 0 4.66 1.26 9.08 3.54 12.45 2.49 3.66 6.05 5.77 9.77 5.77 3.72 0 7.28-2.11 9.76-5.77 2.29-3.37 3.55-7.79 3.55-12.45 0-4.67-1.26-9.09-3.55-12.46Zm-30.22 0C42.66 2.1 39.1 0 35.38 0c-3.72 0-7.28 2.1-9.77 5.76-2.28 3.37-3.54 7.79-3.54 12.46 0 4.66 1.26 9.08 3.54 12.45 2.49 3.66 6.05 5.77 9.77 5.77 3.72 0 7.28-2.11 9.76-5.77 2.29-3.37 3.54-7.79 3.54-12.45 0-4.67-1.25-9.09-3.54-12.46Zm55.25 28.6c-1-3.41-3.15-5.88-6.05-6.97-2.33-.88-4.96-.73-7.41.42-3.37 1.58-6.13 4.84-7.56 8.94-1.18 3.36-1.32 6.9-.42 9.99 1.01 3.41 3.15 5.88 6.05 6.97 1.01.38 2.06.57 3.14.57 1.42 0 2.88-.33 4.28-.98 3.37-1.58 6.13-4.84 7.56-8.95 1.17-3.35 1.32-6.9.41-9.99Zm-78.78 2.39c-1.43-4.1-4.19-7.36-7.57-8.94-2.44-1.15-5.08-1.3-7.41-.42-2.9 1.09-5.05 3.56-6.05 6.97-.9 3.09-.76 6.64.41 9.99 1.44 4.11 4.2 7.37 7.57 8.95 1.39.65 2.85.98 4.28.98 1.07 0 2.13-.19 3.13-.57 2.9-1.09 5.05-3.56 6.05-6.97.91-3.09.76-6.63-.41-9.99Z"/></svg>