<svg width="18.000000" height="18.000000" viewBox="0 0 18 18" fill="none" xmlns="http://www.w3.org/2000/svg" xmlns:xlink="http://www.w3.org/1999/xlink">
	<desc>
			Created with Pixso.
	</desc>
	<defs/>
	<path id="Vector" d="M17.01 12.38C15.78 12.38 14.59 12.18 13.48 11.82C13.13 11.7 12.74 11.79 12.47 12.06L10.9 14.03C8.07 12.68 5.42 10.13 4 7.2L5.96 5.53C6.23 5.26 6.31 4.87 6.2 4.52C5.83 3.4 5.64 2.21 5.64 0.98C5.64 0.45 5.19 0 4.64 0L1.19 0C0.64 0 0 0.23 0 0.98C0 10.28 7.73 18 17.01 18C17.71 18 18 17.37 18 16.82L18 13.37C18 12.83 17.54 12.38 17.01 12.38Z" fill="#FF8A00" fill-opacity="1.000000" fill-rule="nonzero"/>
</svg>
